<svg width="100%" height="100%" viewBox="0 0 20 20"><g fill="none" fill-rule="evenodd"><circle cx="10" cy="10" r="10" fill="currentColor"></circle><path fill="#FFF" d="M8.703 5.257a.688.688 0 1 1 .973.973l-3.55 3.55a2.56 2.56 0 0 0 3.622 3.622l4.385-4.386a1.675 1.675 0 0 0-2.368-2.368L9.05 9.363a.789.789 0 0 0 1.115 1.115l1.88-1.88a.688.688 0 0 1 .973.973l-1.88 1.88A2.165 2.165 0 1 1 8.077 8.39l2.715-2.715a3.05 3.05 0 1 1 4.314 4.314l-4.385 4.386a3.937 3.937 0 0 1-5.568-5.568l3.55-3.55z"></path></g></svg>