<svg width="100%" height="100%" viewBox="0 0 124 124"><path fill="#0061D5" fill-rule="nonzero" d="M0 0h124v124H0V0z"></path><g fill="#fff" fill-rule="nonzero"><path d="M63.46 54.33a13.168 13.168 0 0 0-11.63 7 13.167 13.167 0 0 0-11.621-6.997c-2.866 0-5.655.937-7.939 2.667V45.82a2.642 2.642 0 0 0-2.63-2.63 2.642 2.642 0 0 0-2.63 2.63v21.95c.077 7.171 5.998 13.029 13.169 13.029 4.88 0 9.376-2.712 11.651-7.029a13.206 13.206 0 0 0 11.615 6.94c7.236 0 13.19-5.954 13.19-13.19 0-7.23-5.945-13.182-13.175-13.19M40.17 75.49h-.04c-4.356 0-7.94-3.584-7.94-7.94s3.584-7.94 7.94-7.94 7.94 3.584 7.94 7.94v.02c0 4.337-3.563 7.909-7.9 7.92m23.28 0h-.04c-4.356 0-7.94-3.584-7.94-7.94s3.584-7.94 7.94-7.94 7.94 3.584 7.94 7.94v.02c0 4.337-3.563 7.909-7.9 7.92"></path><path d="M96.46 76.58l-7.07-8.83 7.07-8.86a2.54 2.54 0 0 0-.59-3.66 3.01 3.01 0 0 0-3.87.47l-6.09 7.61-6.13-7.61a3.01 3.01 0 0 0-3.92-.48 2.542 2.542 0 0 0-.59 3.66l7.06 8.86-7.06 8.83a2.559 2.559 0 0 0 .59 3.67 3.01 3.01 0 0 0 3.92-.49l6.09-7.6 6.07 7.6a3.01 3.01 0 0 0 3.92.49 2.531 2.531 0 0 0 .61-3.67"></path></g></svg>