<svg width="100%" height="100%" viewBox="0 0 24 24"><path fill="currentColor" fill-rule="evenodd" d="M15.59 2c2.23 0 3.037.232 3.852.668a4.543 4.543 0 0 1 1.89 1.89c.436.815.668 1.623.668 3.852v7.18c0 2.23-.232 3.037-.668 3.852a4.543 4.543 0 0 1-1.89 1.89c-.815.436-1.623.668-3.852.668H8.41c-2.23 0-3.037-.232-3.852-.668a4.543 4.543 0 0 1-1.89-1.89C2.232 18.627 2 17.82 2 15.59V8.41c0-2.23.232-3.037.668-3.852a4.543 4.543 0 0 1 1.89-1.89C5.373 2.232 6.18 2 8.41 2h7.18zm3.128 6H5.282c-.446 0-.607.046-.77.134a.909.909 0 0 0-.378.378c-.088.163-.134.324-.134.77v6.872c0 1.337.14 1.822.4 2.311.262.49.646.873 1.135 1.134.489.262.974.401 2.31.401h8.31c1.336 0 1.821-.14 2.31-.4a2.726 2.726 0 0 0 1.134-1.135c.262-.489.401-.974.401-2.31V9.281c0-.446-.046-.607-.134-.77a.909.909 0 0 0-.378-.378c-.163-.088-.324-.134-.77-.134zM12 15a1 1 0 1 1 0 2 1 1 0 0 1 0-2zm-5 0a1 1 0 1 1 0 2 1 1 0 0 1 0-2zm10 0a1 1 0 1 1 0 2 1 1 0 0 1 0-2zm-5-4a1 1 0 1 1 0 2 1 1 0 0 1 0-2zm-5 0a1 1 0 1 1 0 2 1 1 0 0 1 0-2zm10 0a1 1 0 1 1 0 2 1 1 0 0 1 0-2zm-1-7H8a1 1 0 1 0 0 2h8a1 1 0 0 0 0-2z"></path></svg>