<svg width="100%" height="100%" viewBox="0 0 20 20"><g fill="none" fill-rule="evenodd"><circle cx="10" cy="10" r="10" fill="currentColor"></circle><circle cx="7" cy="7" r="2" fill="#FFF" opacity=".5"></circle><rect width="5" height="2" x="10" y="6" fill="#FFF" opacity=".5" rx=".5"></rect><rect width="4" height="2" x="11" y="12" fill="#FFF" opacity=".5" rx=".5"></rect><path fill="#FFF" fill-rule="nonzero" d="M4.419 11.854l-.566.565a.5.5 0 0 0 0 .707l2.282 2.283 4.282-4.283a.5.5 0 0 0 0-.707l-.566-.565a.5.5 0 0 0-.707 0l-3.009 3.01-1.01-1.01a.5.5 0 0 0-.706 0z"></path></g></svg>