<svg width="100%" height="100%" viewBox="0 0 24 24"><path fill="currentColor" fill-rule="evenodd" d="M23 19a1 1 0 0 1 0 2H1a1 1 0 0 1 0-2h22zM18.436 3c.964 0 1.477.087 2.012.34.5.236.9.588 1.167 1.029.286.472.385.925.385 1.776v8.71c0 .85-.1 1.304-.385 1.776a2.676 2.676 0 0 1-1.167 1.029c-.535.253-1.048.34-2.012.34H5.564c-.964 0-1.477-.087-2.012-.34a2.676 2.676 0 0 1-1.167-1.029C2.1 16.159 2 15.706 2 14.855v-8.71c0-.85.1-1.304.385-1.776A2.676 2.676 0 0 1 3.552 3.34C4.087 3.087 4.6 3 5.564 3h12.872zm.17 2H5.564c-.662 0-.864.033-1.07.126a.767.767 0 0 0-.345.293c-.11.174-.149.344-.149.904v8.354c0 .56.039.73.149.904a.767.767 0 0 0 .346.293c.205.093.407.126 1.069.126h12.872c.662 0 .864-.033 1.07-.126a.767.767 0 0 0 .345-.293c.11-.174.149-.344.149-.904V6.323c0-.56-.039-.73-.149-.904a.767.767 0 0 0-.346-.293c-.187-.085-.37-.12-.9-.125z"></path></svg>