<svg width="100%" height="100%" viewBox="0 0 20 20"><g fill="none" fill-rule="evenodd"><circle cx="10" cy="10" r="10" fill="currentColor"></circle><path fill="#fff" d="M9.113 7.53c1.033 0 1.45.115 1.858.333.407.218.727.538.945.945.218.408.334.826.334 1.858v1.492c0 1.032-.116 1.45-.334 1.857a2.272 2.272 0 0 1-.945.945c-.407.218-.825.334-1.858.334H7.887c-1.033 0-1.45-.116-1.858-.334a2.272 2.272 0 0 1-.945-.945c-.218-.407-.334-.825-.334-1.857v-1.492c0-1.032.116-1.45.334-1.858.218-.407.538-.727.945-.945.407-.218.825-.334 1.858-.334h1.226zm.996 1.411H6.891c-.223 0-.304.023-.385.067a.454.454 0 0 0-.19.189c-.043.081-.066.162-.066.385v3.66c0 .222.023.303.067.385a.454.454 0 0 0 .189.189c.081.043.162.066.385.066h3.218c.223 0 .304-.023.385-.066a.454.454 0 0 0 .19-.19c.043-.08.066-.162.066-.385V9.582c0-.223-.023-.304-.067-.385a.454.454 0 0 0-.189-.189c-.081-.044-.162-.067-.385-.067zm2.004-4.235c1.033 0 1.45.116 1.858.334.407.218.727.537.945.945.218.407.334.825.334 1.857v1.492c0 1.032-.116 1.45-.334 1.858a2.272 2.272 0 0 1-.945.945c-.264.14-.532.24-.97.291L13 11.058h.109c.186 0 .273-.015.344-.046l.041-.02a.454.454 0 0 0 .19-.189c.043-.081.066-.162.066-.385v-3.66c0-.222-.023-.303-.067-.385a.454.454 0 0 0-.189-.189c-.081-.043-.162-.066-.385-.066H9.891c-.223 0-.304.023-.385.066a.454.454 0 0 0-.19.19c-.043.08-.066.162-.066.385v.064H7.81c.055-.362.147-.602.274-.838.218-.408.538-.727.945-.945.407-.218.825-.334 1.858-.334h1.226z"></path></g></svg>