<svg width="100%" height="100%" viewBox="0 0 24 24"><path fill="currentColor" fill-rule="evenodd" d="M20.342 16.2a.25.25 0 0 1 .352.035l.214.266C22.303 18.252 23 19.585 23 20.5c0 1.38-1 2.5-2.5 2.5S18 22 18 20.5c0-.96.769-2.382 2.306-4.265a.25.25 0 0 1 .036-.036zM5.05 8.736l9.9 9.9a2.855 2.855 0 0 1-3.227.568l-1.457-.68a3 3 0 0 0-3.519.734l-2.495 2.828A1.879 1.879 0 1 1 1.6 19.435l2.828-2.496a3 3 0 0 0 .734-3.518l-.68-1.457a2.855 2.855 0 0 1 .44-3.09l.128-.137zM14.6 1.354a3 3 0 0 1 .306.268l7.16 7.16a3 3 0 0 1-.306 4.51l-6.102 4.638-1.431-1.431 6.43-5.117.033-.028.03-.029a.75.75 0 0 0 .073-.976l-.072-.084-4.613-4.615-5.293 4.333a.25.25 0 0 1-.352-.352l4.331-5.294-1.37-1.37a.75.75 0 0 0-.031-.029l-.033-.027a.75.75 0 0 0-.978.038l-.076.082-5.118 6.43-1.43-1.43 4.638-6.103a3 3 0 0 1 4.204-.574z"></path></svg>