<svg width="100%" height="100%" viewBox="0 0 24 24"><path fill="currentColor" fill-rule="evenodd" d="M12.057 23h-.143C5.263 23 1 18.893 1 12.477v-.719C1 5.356 5.534 1 12.215 1h.114C18.551 1 23 4.94 23 10.472v.678c0 3.788-2.046 6.347-5.064 6.347-1.816 0-3.261-.802-3.547-1.992h-.143c-.33 1.162-1.688 1.992-3.262 1.992-2.446 0-3.976-1.743-3.976-4.55V11.44c0-2.724 1.559-4.439 4.034-4.439 1.459 0 2.646.747 3.004 1.895h.1v-.318c0-.802.529-1.328 1.316-1.328.786 0 1.287.526 1.287 1.328v5.475c0 .872.6 1.452 1.473 1.452 1.43 0 2.36-1.783 2.36-4.521v-.415c0-4.37-3.432-7.467-8.253-7.467h-.114c-5.236 0-8.74 3.498-8.74 8.739v.553c0 5.213 3.347 8.532 8.568 8.532h.129c1.473 0 2.703-.29 3.261-.29.6 0 1.044.387 1.044.954 0 .511-.3.87-.9 1.05-.86.236-2.075.36-3.52.36zM9.811 12.56c0 1.798.701 2.71 2.06 2.71 1.33 0 2.031-.885 2.031-2.558v-1.134c0-1.52-.786-2.461-2.06-2.461-1.287 0-2.03.968-2.03 2.669v.774z"></path></svg>