<svg width="100%" height="100%" viewBox="0 0 24 24"><path fill="currentColor" fill-rule="evenodd" d="M12.213.2v.016l.086.007c2.7.24 5.155 2.343 5.785 4.97l.051.233.215 1.093c.098.502.647.954 1.157.954l-.001.033.085.01a4.006 4.006 0 0 1 3.404 3.763l.005.2v2.54h-1.808a2.004 2.004 0 0 0-2.002 2.006l-.037-.001-.007.054a2.998 2.998 0 0 1-2.771 2.48l-.176.006h-.779c-.686 0-1.539.582-1.792 1.226L12 23.935l-1.628-4.145c-.256-.65-1.1-1.226-1.792-1.226H7.8a3 3 0 0 1-2.947-2.486l-.008-.054H4.81a2 2 0 0 0-1.852-2l-.15-.006H1V11.48a4 4 0 0 1 3.408-3.963l.085-.011v-.032c.474 0 .98-.39 1.13-.847l.027-.107.215-1.093C6.438 2.51 9.247.2 12.213.2zm-.215 2.005l-.186.016C9.945 2.42 8.19 3.965 7.827 5.812l-.214 1.093c-.25 1.267-1.34 2.293-2.598 2.52l-.016.002v.046a1.998 1.998 0 0 0-1.994 1.856l-.005.15v.544a4 4 0 0 1 3.766 3.409l.015.124h.029c0 .517.386.943.876 1l.115.008h.779c1.325 0 2.702.826 3.399 1.981l.021.038.02-.036c.664-1.097 1.95-1.903 3.211-1.978l.19-.005h.778a1 1 0 0 0 .991-1.007l.028-.001.016-.123A4.006 4.006 0 0 1 21 12.023v-.544a2.005 2.005 0 0 0-1.85-2L19 9.472v-.046l-.204-.042c-1.12-.278-2.077-1.185-2.37-2.309l-.039-.171-.214-1.093c-.375-1.907-2.252-3.514-4.193-3.607h.018zM10 6.2c.552 0 1 .443 1 .999v1.002a.997.997 0 0 1-.883.992L10 9.2c-.552 0-1-.443-1-.999V7.199c0-.512.383-.935.883-.992L10 6.2zm4 0c.552 0 1 .443 1 .999v1.002a.997.997 0 0 1-.883.992L14 9.2c-.552 0-1-.443-1-.999V7.199c0-.512.383-.935.883-.992L14 6.2z"></path></svg>