<svg width="100%" height="100%" viewBox="0 0 100 100"><g fill="none"><path fill="#FFF" d="M0 0h100v100H0z"></path><path fill="#0066DA" d="M25.81 68.148l2.513 4.342c.522.914 1.273 1.632 2.155 2.154l8.977-15.54H21.5c0 1.013.261 2.025.784 2.939l3.525 6.105z"></path><path fill="#00AC47" d="M50 40.823l-8.978-15.54c-.881.523-1.632 1.241-2.154 2.155L22.284 56.167a5.915 5.915 0 0 0-.784 2.938h17.955L50 40.823z"></path><path fill="#EA4335" d="M69.522 74.644c.882-.522 1.633-1.24 2.155-2.154l1.045-1.796 4.994-8.651a5.915 5.915 0 0 0 .784-2.938H60.543l3.821 7.508 5.158 8.031z"></path><path fill="#00832D" d="M50 40.823l8.978-15.54a5.74 5.74 0 0 0-2.938-.783H43.96a6.079 6.079 0 0 0-2.938.784L50 40.823z"></path><path fill="#2684FC" d="M60.545 59.105h-21.09l-8.977 15.54a5.74 5.74 0 0 0 2.938.783h33.168a6.079 6.079 0 0 0 2.938-.784l-8.977-15.54z"></path><path fill="#FFBA00" d="M69.424 41.802l-8.292-14.364c-.522-.914-1.273-1.632-2.154-2.154L50 40.823l10.545 18.282h17.922a5.915 5.915 0 0 0-.783-2.938l-8.26-14.365z"></path></g></svg>