<svg width="100%" height="100%" viewBox="0 0 24 24"><g fill="none" fill-rule="evenodd"><rect width="4" height="3" x="10" y="21" fill="#576166" rx="1"></rect><circle cx="12" cy="12" r="7" fill="#FFD426"></circle><path fill="#FFF" d="M12.5 13.828V18h-1v-4.172a1 1 0 0 0-.293-.707l-1.06-1.06a.5.5 0 0 1 .707-.707L12 12.5l1.146-1.146a.5.5 0 0 1 .708.707l-1.061 1.06a1 1 0 0 0-.293.707z"></path><path fill="#FA0" d="M12 5a7 7 0 0 1 4 12.745V18h-2v-1.38l.5-.288a5 5 0 1 0-4.999 0l.499.289V18H8v-.255A7 7 0 0 1 12 5z" opacity=".3"></path><path fill="#B2BBC0" d="M9 19h6v3H9z"></path><path fill="#8A9499" d="M16 20a3 3 0 0 1-3 3h-2a3 3 0 0 1-3-3v-2h8v2zm-2-1h-4v1a1 1 0 0 0 1 1h2a1 1 0 0 0 1-1v-1z"></path><path fill="#FFD426" d="M6.343 17.657a1 1 0 0 1 0 1.414L4.93 20.485a1 1 0 1 1-1.414-1.414l1.414-1.414a1 1 0 0 1 1.414 0zm12.728 0l1.414 1.414a1 1 0 0 1-1.414 1.414l-1.414-1.414a1 1 0 0 1 1.414-1.414zM3 11a1 1 0 0 1 0 2H1a1 1 0 0 1 0-2h2zm20 0a1 1 0 0 1 0 2h-2a1 1 0 0 1 0-2h2zm-2.515-7.485a1 1 0 0 1 0 1.414l-1.414 1.414a1 1 0 0 1-1.414-1.414l1.414-1.414a1 1 0 0 1 1.414 0zm-15.556 0l1.414 1.414A1 1 0 0 1 4.93 6.343L3.515 4.93a1 1 0 1 1 1.414-1.414zM12 0a1 1 0 0 1 1 1v2a1 1 0 0 1-2 0V1a1 1 0 0 1 1-1z"></path></g></svg>