<svg width="100%" height="100%" viewBox="0 0 20 20"><g fill="currentColor" fill-rule="evenodd"><circle cx="10" cy="10" r="10" opacity=".2"></circle><path d="M7.132 8.767c1.137-1.138 2.936-1.219 4.022-.133a.75.75 0 1 1-1.06 1.06c-.478-.477-1.33-.438-1.902.134L6.64 11.38c-.57.57-.609 1.425-.133 1.9.476.477 1.33.439 1.9-.132l.998-.998a.75.75 0 0 1 1.06 1.06l-.996.998c-1.137 1.137-2.939 1.217-4.023.133-1.084-1.084-1.002-2.887.133-4.022zm3.692-3.15c1.137-1.137 2.938-1.217 4.022-.133 1.085 1.084 1.002 2.887-.133 4.022l-1.552 1.552c-1.137 1.137-2.938 1.217-4.022.133a.75.75 0 1 1 1.06-1.06c.477.476 1.33.438 1.901-.133l1.552-1.553c.57-.57.61-1.425.134-1.9-.477-.476-1.33-.438-1.901.133l-.956.956a.75.75 0 1 1-1.061-1.061z"></path></g></svg>