<svg width="100%" height="100%" fill-rule="evenodd" stroke-linejoin="round" stroke-miterlimit="1.414" clip-rule="evenodd" viewBox="0 0 124 124"><path fill="#FA0" d="M0 0h124v124H0V0z"></path><g fill="#fff"><path d="M55.139 81.797H27.735a.736.736 0 0 0-.697.968l.476 1.422a2.94 2.94 0 0 0 2.788 2.009h63.396a2.94 2.94 0 0 0 2.789-2.009l.475-1.422a.735.735 0 0 0-.697-.968H68.861l-.98 1.466H56.119l-.98-1.466z"></path><path fill-opacity=".6" d="M54.649 81.797h14.702v2.932H54.649v-2.932z"></path><path fill-opacity=".8" d="M37.006 77.397h49.988l9.557 4.4H27.45"></path><path fill-opacity=".3" d="M85.524 42.195a1.46 1.46 0 0 0-1.459-1.458h-44.13a1.46 1.46 0 0 0-1.459 1.458V71.54a1.46 1.46 0 0 0 1.459 1.458h44.13a1.46 1.46 0 0 0 1.459-1.458V42.195z"></path><path d="M85.66 36.335l.112.005.112.007.11.009.11.013.11.015.108.018.108.021.107.023.106.026.105.029.104.031.102.033.102.036.1.038.1.041.097.042.097.046.096.047.093.05.093.051.091.054.09.056.088.058.087.06.085.063.083.064.082.066.081.068.078.069.077.072.075.073.074.075.071.077.07.079.068.08.066.082.064.083.062.086.06.086.058.089.056.089.054.091.052.093.05.094.047.095.045.097.043.098.041.099.038.101.036.101.033.103.031.104.028.105.026.106.023.106.021.108.018.109.015.109.013.11.01.111.007.111.004.112.001.103v32.313l-.001.103-.004.112-.007.111-.01.111-.013.11-.015.109-.018.109-.021.108-.023.107-.026.105-.028.105-.031.104-.033.103-.036.102-.038.1-.041.099-.043.098-.045.097-.047.095-.05.094-.052.093-.054.091-.056.09-.058.088-.06.087-.062.085-.064.083-.066.082-.068.08-.07.079-.071.077-.074.075-.075.073-.077.072-.078.07-.081.068-.082.065-.083.065-.085.062-.087.06-.088.058-.09.056-.091.054-.093.052-.093.049-.096.048-.096.045-.098.043-.1.04-.1.038-.102.036-.102.034-.104.031-.105.028-.106.026-.107.023-.108.021-.108.018-.11.015-.11.013-.11.01-.112.007-.112.004-.103.001H38.443l-.103-.001-.112-.004-.111-.007-.111-.01-.11-.013-.11-.015-.108-.018-.108-.021-.107-.023-.106-.026-.105-.028-.103-.031-.103-.034-.102-.036-.1-.038-.099-.04-.098-.043-.097-.045-.095-.048-.094-.049-.093-.052-.091-.054-.09-.056-.088-.058-.087-.06-.085-.062-.083-.065-.082-.065-.08-.068-.079-.07-.077-.072-.075-.073-.073-.075-.072-.077-.07-.079-.068-.08-.066-.082-.064-.083-.062-.086-.06-.086-.058-.088-.056-.09-.054-.091-.052-.093-.049-.094-.048-.095-.045-.097-.043-.098-.04-.099-.039-.1-.035-.102-.034-.103-.031-.104-.028-.104-.026-.106-.023-.107-.021-.108-.018-.109-.015-.109-.013-.11-.01-.111-.007-.111-.004-.112-.001-.103V40.712l.001-.104.004-.112.007-.111.01-.111.013-.11.015-.109.018-.109.021-.108.023-.107.026-.105.028-.105.031-.104.034-.103.035-.101.039-.101.04-.099.043-.098.045-.097.048-.095.049-.094.052-.093.054-.091.056-.09.058-.088.06-.086.062-.085.064-.084.066-.082.068-.08.07-.079.072-.077.073-.075.075-.073.077-.072.079-.07.08-.067.082-.066.083-.064.085-.063.087-.06.088-.058.09-.056.091-.054.093-.051.094-.05.095-.047.097-.046.098-.042.099-.041.1-.038.102-.036.103-.033.103-.031.105-.029.106-.026.107-.023.108-.021.108-.018.11-.015.11-.013.111-.009.111-.007.112-.005.103-.001h47.114l.103.001zm-47.198 2.939l-.047.001-.038.001-.037.003-.037.003-.036.004-.036.005-.036.006-.035.007-.035.008-.034.008-.034.009-.034.01-.034.011-.033.012-.033.012-.032.014-.032.014-.032.014-.031.016-.031.016-.031.017-.03.018-.029.019-.029.019-.029.02-.028.02-.028.022-.027.022-.027.022-.026.023-.026.024-.025.025-.024.025-.024.025-.023.026-.023.027-.022.027-.021.028-.021.028-.019.029-.02.029-.018.03-.018.03-.017.03-.016.031-.016.031-.015.032-.014.032-.013.033-.012.032-.012.033-.011.034-.01.034-.009.034-.009.035-.007.034-.007.036-.006.035-.005.036-.004.037-.003.036-.003.037-.001.038-.001.047v32.275l.001.047.001.038.003.037.003.037.004.036.005.036.006.035.007.036.007.035.009.034.009.034.01.034.011.034.012.033.012.033.013.032.014.032.015.032.016.031.016.031.017.03.018.03.018.03.02.029.019.029.021.028.021.028.022.027.023.027.023.026.024.026.024.025.025.024.026.024.026.023.027.023.027.022.028.021.028.02.029.02.029.019.029.019.03.018.031.017.031.016.031.016.032.014.032.014.032.014.033.012.033.012.034.011.034.01.034.009.034.009.035.007.035.007.036.006.036.005.036.004.037.003.037.003.038.001.047.001h47.076l.048-.001.037-.001.037-.003.037-.003.036-.004.036-.005.036-.006.035-.007.035-.007.034-.009.035-.009.033-.01.034-.011.033-.012.033-.012.032-.014.032-.014.032-.014.031-.016.031-.016.031-.017.03-.018.029-.019.03-.019.028-.02.029-.02.027-.021.027-.022.027-.023.026-.023.026-.024.025-.024.024-.025.024-.026.023-.026.023-.027.022-.027.021-.028.021-.028.02-.029.019-.029.018-.03.018-.03.017-.03.016-.031.016-.031.015-.032.014-.032.013-.032.013-.033.011-.033.011-.034.01-.034.009-.034.009-.034.008-.035.006-.036.006-.035.005-.036.004-.036.004-.037.002-.037.001-.038.001-.047V40.73l-.001-.047-.001-.038-.002-.037-.004-.036-.004-.037-.005-.036-.006-.035-.006-.035-.008-.036-.009-.034-.009-.034-.01-.034-.011-.034-.011-.033-.013-.032-.013-.033-.014-.032-.015-.032-.016-.031-.016-.031-.017-.03-.018-.03-.018-.03-.019-.029-.02-.029-.021-.028-.021-.028-.022-.027-.023-.027-.023-.026-.024-.025-.024-.025-.025-.025-.026-.024-.026-.023-.027-.022-.027-.022-.027-.022-.029-.02-.028-.02-.03-.019-.029-.019-.03-.018-.031-.017-.031-.016-.031-.016-.032-.014-.032-.014-.032-.014-.033-.012-.033-.012-.034-.011-.033-.01-.035-.009-.034-.008-.035-.008-.035-.007-.036-.006-.036-.005-.036-.004-.037-.003-.037-.003-.037-.001-.048-.001H38.462z"></path><path d="M66.411 54.664a.73.73 0 0 0-.729-.729h-7.363a.73.73 0 0 0-.729.729V67.87a.73.73 0 0 0 .729.729h7.363a.73.73 0 0 0 .729-.729V54.664z"></path><path d="M62.553 45.766l8.669 9.882a.735.735 0 0 1-.553 1.22H53.332a.735.735 0 0 1-.553-1.22l8.669-9.882a.735.735 0 0 1 1.105 0z"></path></g></svg>