<svg width="100%" height="100%" viewBox="0 0 24 24"><defs><linearGradient id="a1936084177" x1="0%" x2="63.238%" y1="100%" y2="35.336%"><stop offset="0%" stop-color="#C499FF"></stop><stop offset="100%" stop-color="#A179F2"></stop></linearGradient></defs><g fill="none" fill-rule="evenodd"><path fill="#A179F2" d="M23 19.077V8.74c0-.516-.019-.695-.064-.893a1.741 1.741 0 0 0-.226-.545c-.108-.173-.221-.312-.586-.677l-2.748-2.748c-.365-.365-.504-.478-.677-.586a1.741 1.741 0 0 0-.545-.226C17.956 3.02 17.777 3 17.26 3H2.923c-.669 0-.911.07-1.156.2-.244.131-.436.323-.567.567-.13.245-.2.487-.2 1.156v14.154c0 .669.07.911.2 1.156.131.244.323.436.567.567.245.13.487.2 1.156.2h18.154c.669 0 .911-.07 1.156-.2.244-.131.436-.323.567-.567.13-.245.2-.487.2-1.156z"></path><path fill="#000" d="M23 13V8h-5z" opacity=".07"></path><path fill="url(#a1936084177)" d="M13.188.064c.198.046.374.118.546.226.172.108.312.221.677.586l2.747 2.748c.366.365.479.504.586.677a1.741 1.741 0 0 1 .256.698h-4.965V.036c.054.008.103.018.153.03z" transform="matrix(0 -1 -1 0 23 21)"></path><path fill="#FFF" d="M14.295 7.5c1.115 0 1.519.116 1.926.334.407.218.727.538.945.945.218.407.334.811.334 1.926v2.59c0 1.115-.116 1.519-.334 1.926a2.272 2.272 0 0 1-.945.945c-.407.218-.811.334-1.926.334h-4.59c-1.115 0-1.519-.116-1.926-.334a2.272 2.272 0 0 1-.945-.945c-.218-.407-.334-.811-.334-1.926v-2.59c0-1.115.116-1.519.334-1.926.218-.407.538-.727.945-.945.407-.218.811-.334 1.926-.334h4.59zM9.25 13.707l-1.33 1.33c.1.104.216.192.347.263.223.118.443.187.984.198l.172.002h.306l.657-.657-1.136-1.136zm4.688-1L11.143 15.5h3.433c.669 0 .911-.07 1.156-.2.172-.092.317-.214.434-.364l-2.23-2.229zm.64-4.207H9.422c-.669 0-.911.07-1.156.2-.244.131-.436.323-.567.567-.118.223-.187.443-.198.984l-.002.172v3.154c0 .178.005.326.015.452l1.381-1.383a.5.5 0 0 1 .708 0l1.489 1.49 2.49-2.49a.5.5 0 0 1 .708 0l2.204 2.206c.002-.033.003-.067.003-.103l.002-.172v-3.154c0-.669-.07-.911-.2-1.156a1.363 1.363 0 0 0-.567-.567c-.223-.118-.443-.187-.984-.198l-.172-.002H9.423zm-4.328 3.214a1.25 1.25 0 1 1 0-2.5 1.25 1.25 0 0 1 0 2.5z"></path></g></svg>