<svg width="100%" height="100%" viewBox="0 0 20 20"><g fill="currentColor" fill-rule="evenodd"><circle cx="10" cy="10" r="10" opacity=".202"></circle><path d="M14.92 5.409a2.25 2.25 0 0 1 0 3.182l-5.582 5.583a1.5 1.5 0 0 1-.587.363L5.737 15.54a.75.75 0 0 1-.949-.948l1.005-3.014a1.5 1.5 0 0 1 .363-.587l5.583-5.583a2.25 2.25 0 0 1 3.182 0zM11.209 8.06l-3.977 3.978-.265.796.53.53.796-.265 3.977-3.978-1.061-1.061zm2.652-1.59a.75.75 0 0 0-1.06 0l-.531.529L13.33 8.06l.53-.53a.75.75 0 0 0 .073-.976z"></path></g></svg>