<svg width="100%" height="100%" viewBox="0 0 24 24"><path fill="currentColor" fill-rule="evenodd" d="M13.658 2a3 3 0 0 1 2.828 2h.104c2.23 0 3.037.232 3.852.668a4.543 4.543 0 0 1 1.89 1.89c.436.815.668 1.623.668 3.852v5.18c0 2.23-.232 3.037-.668 3.852a4.543 4.543 0 0 1-1.89 1.89c-.815.436-1.623.668-3.852.668H7.41c-2.23 0-3.037-.232-3.852-.668a4.543 4.543 0 0 1-1.89-1.89C1.232 18.627 1 17.82 1 15.59v-5.18c0-2.23.232-3.037.668-3.852a4.543 4.543 0 0 1 1.89-1.89C4.373 4.232 5.18 4 7.41 4l.104-.001A3 3 0 0 1 10.342 2h3.316zm3.496 4H6.846c-1.337 0-1.822.14-2.311.4A2.726 2.726 0 0 0 3.4 7.536C3.139 8.024 3 8.509 3 9.845v6.31c0 1.336.14 1.821.4 2.31.262.49.646.873 1.135 1.134.489.262.974.401 2.31.401h10.31c1.336 0 1.821-.14 2.31-.4a2.726 2.726 0 0 0 1.134-1.135c.262-.489.401-.974.401-2.31v-6.31c0-1.336-.14-1.821-.4-2.31A2.726 2.726 0 0 0 19.464 6.4c-.489-.262-.974-.401-2.31-.401zM12 8a5 5 0 1 1 0 10 5 5 0 0 1 0-10zm0 2a3 3 0 1 0 0 6 3 3 0 0 0 0-6zm6-2a1 1 0 1 1 0 2 1 1 0 0 1 0-2z"></path></svg>