<svg width="100%" height="100%" viewBox="0 0 20 20"><g fill="currentColor" fill-rule="evenodd"><path d="M10 0c5.523 0 10 4.477 10 10s-4.477 10-10 10S0 15.523 0 10 4.477 0 10 0zm0 5a5 5 0 1 0 0 10 5 5 0 0 0 0-10z" opacity=".2"></path><path d="M10 3a7 7 0 1 1 0 14 7 7 0 0 1 0-14zm.5 3h-1a.5.5 0 0 0-.5.5v2.499L6.5 9a.5.5 0 0 0-.492.41L6 9.5v1a.5.5 0 0 0 .5.5l2.5-.001V13.5a.5.5 0 0 0 .41.492L9.5 14h1a.5.5 0 0 0 .5-.5v-2.501l2.5.001a.5.5 0 0 0 .492-.41L14 10.5v-1a.5.5 0 0 0-.5-.5L11 8.999V6.5a.5.5 0 0 0-.41-.492L10.5 6z"></path></g></svg>