<svg width="100%" height="100%" viewBox="0 0 24 24"><path fill="currentColor" fill-rule="evenodd" d="M12 1c6.075 0 11 4.925 11 11s-4.925 11-11 11S1 18.075 1 12 5.925 1 12 1zm0 2a9 9 0 1 0 0 18 9 9 0 0 0 0-18zm-.14 13.56c.75 0 1.345.575 1.345 1.308 0 .733-.594 1.318-1.346 1.318-.751 0-1.354-.585-1.354-1.318 0-.733.603-1.308 1.354-1.308zm.333-11.059c2.515 0 4.24 1.43 4.24 3.526 0 1.42-.705 2.393-1.967 3.145-1.215.705-1.512 1.15-1.586 1.995-.093.612-.408.992-1.04.992-.704 0-1.094-.5-1.094-1.178v-.176c0-1.15.575-1.911 1.735-2.598 1.15-.696 1.54-1.206 1.54-2.097 0-1.01-.789-1.716-1.93-1.716-1.03 0-1.716.51-2.013 1.447-.204.576-.547.807-1.057.807-.64 0-1.021-.39-1.021-1.01 0-.4.083-.743.26-1.096.575-1.261 2.022-2.04 3.933-2.04z"></path></svg>