<svg width="100%" height="100%" viewBox="0 0 24 24"><path fill="currentColor" fill-rule="evenodd" d="M12 22a1 1 0 1 1 0 2 1 1 0 0 1 0-2zm3.835-.765a1 1 0 1 1 .75 1.855 1 1 0 0 1-.75-1.855zm-8.965.537a1 1 0 1 1 1.841.781 1 1 0 0 1-1.841-.781zm12.201-2.7a1 1 0 1 1 1.414 1.413 1 1 0 0 1-1.414-1.414zm-15.556 0a1 1 0 1 1 1.414 1.413 1 1 0 0 1-1.414-1.414zm8.344-2.512c.752 0 1.346.575 1.346 1.308 0 .733-.594 1.318-1.346 1.318-.751 0-1.354-.585-1.354-1.318 0-.733.603-1.308 1.354-1.308zm9.383-.741a1 1 0 1 1 1.841.781 1 1 0 0 1-1.84-.781zm-19.795-.53a1 1 0 1 1 .781 1.841 1 1 0 0 1-.781-1.841zm10.746-9.788c2.515 0 4.24 1.43 4.24 3.526 0 1.42-.705 2.393-1.967 3.145-1.215.705-1.512 1.15-1.586 1.995-.093.612-.408.992-1.04.992-.704 0-1.094-.5-1.094-1.178v-.176c0-1.15.575-1.911 1.735-2.598 1.15-.696 1.54-1.206 1.54-2.097 0-1.01-.789-1.716-1.93-1.716-1.03 0-1.716.51-2.013 1.447-.204.576-.547.807-1.057.807-.64 0-1.021-.39-1.021-1.01 0-.4.083-.743.26-1.096.575-1.261 2.022-2.04 3.933-2.04zM23 11a1 1 0 1 1 0 2 1 1 0 0 1 0-2zM1 11a1 1 0 1 1 0 2 1 1 0 0 1 0-2zm20.788-4.137a1 1 0 1 1 .75 1.855 1 1 0 0 1-.75-1.855zM.917 7.4a1 1 0 1 1 1.84.781A1 1 0 0 1 .918 7.4zM19.07 3.515a1 1 0 1 1 1.414 1.414 1 1 0 0 1-1.414-1.414zm-15.556 0a1 1 0 1 1 1.414 1.414 1 1 0 0 1-1.414-1.414zm11.774-2.068a1 1 0 1 1 1.841.781 1 1 0 0 1-1.841-.781zM7.416.91a1 1 0 1 1 .75 1.855A1 1 0 0 1 7.415.91zM12 0a1 1 0 1 1 0 2 1 1 0 0 1 0-2z"></path></svg>