<svg width="100%" height="100%" viewBox="0 0 24 24"><path fill="currentColor" fill-rule="evenodd" d="M18 3a5 5 0 0 1 4.995 4.783L23 8a1 1 0 0 1-1.993.117L21 8a3 3 0 0 0-3-3H6a3 3 0 0 0-3 3v8a3 3 0 0 0 3 3h4v2l2-2h7a1 1 0 0 1 0 2h-6l-3.375 2.7A1 1 0 0 1 8 22.92V21H6a5 5 0 0 1-5-5V8a5 5 0 0 1 5-5h12zm-.586 6a1 1 0 0 1 .083 1.32l-.083.094-.586.585L20 11a3 3 0 0 1 3 3v6a1 1 0 0 1-2 0v-6a1 1 0 0 0-1-1h-3.173l.587.586a1 1 0 0 1-1.32 1.497L16 15l-2.293-2.293a1 1 0 0 1-.083-1.32l.083-.094L16 9a1 1 0 0 1 1.414 0zM11 13a1 1 0 0 1 0 2H7a1 1 0 0 1 0-2h4zm0-4a1 1 0 0 1 0 2H7a1 1 0 0 1 0-2h4z"></path></svg>