<svg width="100%" height="100%" viewBox="0 0 16 16"><path fill="currentColor" fill-rule="evenodd" d="M8 0a8 8 0 1 1 0 16A8 8 0 0 1 8 0zm0 1a7 7 0 1 0 0 14A7 7 0 0 0 8 1zm4.798 7.827l.196-.061C12.868 11.68 10.68 14 8 14c-2.68 0-4.868-2.32-4.994-5.234C4.476 9.233 6.18 9.5 8 9.5c1.739 0 3.374-.244 4.798-.673l.196-.061zm-.487.825c-1.189.438-2.685.623-4.311.623s-3.122-.185-4.31-.623C4.245 11.01 5.964 12 8 12c2.035 0 3.754-.99 4.31-2.348zM5.75 5c.414 0 .75.448.75 1s-.336 1-.75 1S5 6.552 5 6s.336-1 .75-1zm4.5 0c.414 0 .75.448.75 1s-.336 1-.75 1-.75-.448-.75-1 .336-1 .75-1z"></path></svg>