<svg width="100%" height="100%" viewBox="0 0 24 24"><path fill="currentColor" fill-rule="evenodd" d="M11.992 2.055c1.11-.003 2.647.635 3.424 1.414l6.766 6.786a4.011 4.011 0 0 1-.01 5.666l-6.343 6.365a3.972 3.972 0 0 1-5.647-.012L3.405 15.42C2.629 14.636 2 13.104 2 12.005V4.077a2.01 2.01 0 0 1 2.009-2l7.983-.022zm.004 1.5l-7.983.022a.51.51 0 0 0-.513.5v7.928c0 .705.474 1.858.971 2.36l6.778 6.854a2.472 2.472 0 0 0 3.517.008l6.343-6.365c.983-.986.984-2.57.01-3.548l-6.765-6.786c-.496-.497-1.651-.975-2.358-.973zm1.54 2.981l5.744 5.744a1.008 1.008 0 0 1 0 1.428l-5.744 5.744a1.008 1.008 0 0 1-1.428 0l-5.743-5.744a1.008 1.008 0 0 1 0-1.428l5.743-5.744a1.008 1.008 0 0 1 1.428 0zM6.494 4.994a1.5 1.5 0 1 1 0 3 1.5 1.5 0 0 1 0-3z"></path></svg>