<svg width="100%" height="100%" viewBox="0 0 24 24"><path fill="currentColor" d="M5.82.598l10.37 4.533c1.41-.624 2.673-.96 3.792-1.052 1.044-.086 1.786.042 2.22.232a1 1 0 0 1 .594 1.029c-.053.47-.313 1.177-.91 2.038-.64.923-1.561 1.85-2.806 2.758l-1.26 11.247-2.42 1.397c-.475.275-.958.06-1.08-.487l-1.917-8.677c-1.043.42-2.136.823-3.26 1.209a80.86 80.86 0 0 1-1.436.477l-.398 3.489-.57.33c-.482.278-.947.067-1.04-.477l-.443-2.596-.172.05-.343.095c-.988.265-1.69-.95-.966-1.673l.382-.375-2.026-1.68c-.422-.35-.37-.863.108-1.139l.57-.33 3.221 1.4c.365-.33.743-.666 1.13-1.003a68.2 68.2 0 0 1 2.677-2.22l-6.554-6c-.411-.375-.355-.905.118-1.178L5.82.598zm11.092 10.914l-.278.163a67.64 67.64 0 0 1-1.502.84l-.828.444 1.597 7.222.043-.025.968-8.644zm3.449-5.454l-.213.014c-1.045.087-2.3.452-3.768 1.178l-.332.174-.685.374-.316.177c-.85.501-1.762 1.113-2.722 1.819a60.593 60.593 0 0 0-3.85 3.107l-.072.062.922-.321c1.101-.393 2.163-.802 3.166-1.224l.618-.266a32.089 32.089 0 0 0 3.131-1.559l-.281.16.398-.235.34-.205.614-.381c1.378-.916 2.33-1.826 2.932-2.694l.118-.18zM5.945 2.835l-.044.026 5.455 4.993.297-.184c.518-.322 1.02-.627 1.503-.912l.757-.44-7.968-3.483z"></path></svg>