<svg width="100%" height="100%" viewBox="0 0 24 24"><path fill="currentColor" fill-rule="evenodd" d="M16 20a1 1 0 0 1 0 2H8a1 1 0 0 1 0-2h8zm3.154-17c1.337 0 1.822.14 2.311.4.49.262.873.646 1.134 1.135.262.489.401.974.401 2.31v8.31c0 1.336-.14 1.821-.4 2.31a2.726 2.726 0 0 1-1.135 1.134c-.489.262-.974.401-2.31.401H4.844c-1.336 0-1.821-.14-2.31-.4A2.726 2.726 0 0 1 1.4 17.464c-.262-.489-.401-.974-.401-2.31v-8.31c0-1.336.14-1.821.4-2.31A2.726 2.726 0 0 1 2.536 3.4C3.024 3.139 3.509 3 4.845 3h14.31zm.564 2H4.282c-.446 0-.607.046-.77.134a.909.909 0 0 0-.378.378c-.088.163-.134.324-.134.77v9.436c0 .446.046.607.134.77.087.163.215.291.378.378.163.088.324.134.77.134h15.436c.446 0 .607-.046.77-.134a.909.909 0 0 0 .378-.378c.088-.163.134-.324.134-.77V6.282c0-.446-.046-.607-.134-.77a.909.909 0 0 0-.378-.378c-.163-.088-.324-.134-.77-.134z"></path></svg>