<svg width="100%" height="100%" viewBox="0 0 24 24"><g fill="none" fill-rule="evenodd"><path fill="#000" fill-opacity=".1" d="M4.923 1h9.338c.516 0 .695.019.893.064.198.046.373.119.545.226.173.108.312.221.677.586l3.748 3.748c.365.365.478.504.586.677.107.172.18.347.226.545.045.198.064.377.064.893v13.338c0 .669-.07.911-.2 1.156-.131.244-.323.436-.567.567-.245.13-.487.2-1.156.2H4.923c-.669 0-.911-.07-1.156-.2a1.363 1.363 0 0 1-.567-.567c-.13-.245-.2-.487-.2-1.156V2.923c0-.669.07-.911.2-1.156.131-.244.323-.436.567-.567.245-.13.487-.2 1.156-.2z"></path><path fill="#FFF" d="M14.827 2.032a.876.876 0 0 1 .174.06L15 7h4.909a.876.876 0 0 1 .059.173c.023.1.032.188.032.447v13.739c0 .223-.023.304-.067.385a.454.454 0 0 1-.189.19c-.081.043-.162.066-.385.066H4.641c-.223 0-.304-.023-.385-.067a.454.454 0 0 1-.19-.189C4.024 21.663 4 21.582 4 21.36V2.641c0-.223.023-.304.067-.385a.454.454 0 0 1 .189-.19C4.337 2.024 4.418 2 4.64 2h9.74c.258 0 .347.01.446.032z"></path><path fill="#000" fill-opacity=".05" d="M15 7h5v5z"></path><path fill="#F7578C" d="M15.027 16.7h-.616c-.814 0-1.473-.66-1.473-1.473v-.054c0-.813.66-1.473 1.473-1.473h.906a.59.59 0 0 0 .59-.59v-3.5l-5.345.98v6.437c0 .813-.66 1.473-1.473 1.473h-.616C7.66 18.5 7 17.84 7 17.027v-.054c0-.813.66-1.473 1.473-1.473h.906a.59.59 0 0 0 .59-.59V8.19a.59.59 0 0 1 .483-.579L16.5 6.5v8.727c0 .813-.66 1.473-1.473 1.473z"></path></g></svg>