<svg width="100%" height="100%" viewBox="0 0 24 24"><defs><linearGradient id="a4073150555" x1="0%" x2="98.242%" y1=".003%" y2="98.24%"><stop offset="0%" stop-color="#7EE87E"></stop><stop offset="100%" stop-color="#3DCC3D"></stop></linearGradient></defs><g fill="none" fill-rule="evenodd"><path fill="#3DCC3D" d="M4.923 1h9.338c.516 0 .695.019.893.064.198.046.373.119.545.226.173.108.312.221.677.586l3.748 3.748c.365.365.478.504.586.677.107.172.18.347.226.545.045.198.064.377.064.893v13.338c0 .669-.07.911-.2 1.156-.131.244-.323.436-.567.567-.245.13-.487.2-1.156.2H4.923c-.669 0-.911-.07-1.156-.2a1.363 1.363 0 0 1-.567-.567c-.13-.245-.2-.487-.2-1.156V2.923c0-.669.07-.911.2-1.156.131-.244.323-.436.567-.567.245-.13.487-.2 1.156-.2z"></path><path fill="#000" d="M15 7h6v6z" opacity=".1"></path><path fill="url(#a4073150555)" d="M15.154 1.064c.198.046.373.119.545.226.173.108.312.221.677.586l3.748 3.748c.365.365.478.504.586.677a1.741 1.741 0 0 1 .255.699H15V1.035c.055.008.104.018.154.03z"></path><path fill="#FFF" d="M14.223 10.084a.5.5 0 0 1 .693.139l2 3a.5.5 0 0 1 0 .554l-2 3a.5.5 0 1 1-.832-.554l1.815-2.723-1.815-2.723a.5.5 0 0 1 .139-.693zm-5.139.139a.5.5 0 1 1 .832.554l-1.812 2.719 1.812 2.727a.5.5 0 0 1-.832.554l-2-3a.5.5 0 0 1 0-.554z"></path></g></svg>